<?xml version="1.0" encoding="UTF-8"?>
<svg width="100%" height="100%" viewBox="0 0 60 60" version="1.1" xmlns="http://www.w3.org/2000/svg" xmlns:xlink="http://www.w3.org/1999/xlink">
  <g id="Symbols" stroke="none" stroke-width="1" fill="none" fill-rule="evenodd">
    <g id="ic/chose-pic_1" fill="#1088F2">
      <g id="ic/chose-pic_60*60">
        <path d="M25,50 L15,50 L15,49.9853811 C8.041479,49.6591605 2.5,43.9142211 2.5,36.875 C2.5,30.2626809 7.38972095,24.7924174 13.7505317,23.8828406 C13.7501774,23.8386023 13.75,23.7943219 13.75,23.75 C13.75,14.7753728 21.0253728,7.5 30,7.5 C37.8217683,7.5 44.3528065,13.0262728 45.9016594,20.3873633 C52.5472719,21.9282436 57.5,27.885736 57.5,35 C57.5,42.8633297 51.4494132,49.3134692 43.75,49.9486578 L43.75,50 L35,50 L35,46.25 L25,46.25 L25,50 Z M15,46.2294972 L15,46.25 L43.75,46.25 L43.75,46.181339 C49.3749381,45.5595337 53.75,40.7906921 53.75,35 C53.75,28.7867966 48.7132034,23.75 42.5,23.75 C42.5,16.8464406 36.9035594,11.25 30,11.25 C23.0964406,11.25 17.5,16.8464406 17.5,23.75 C17.5,25.1880138 17.7428242,26.569313 18.1897058,27.8551309 C17.3745861,27.6238095 16.5142517,27.5 15.625,27.5 C10.4473305,27.5 6.25,31.6973305 6.25,36.875 C6.25,41.8426517 10.1137301,45.9078809 15,46.2294972 Z" id="Combined-Shape"></path>
        <path d="M29.6891005,38.1346032 L18.4391005,38.1346032 L18.4391005,38.1346032 C17.7487446,38.1346032 17.1891005,38.6942473 17.1891005,39.3846032 L17.1891005,39.3846032 L17.1891005,41.8846032 C17.1891005,42.5749592 17.7487446,43.1346032 18.4391005,43.1346032 L29.6891005,43.1346032 L29.6891005,47.208307 C29.6891005,47.4296253 29.747861,47.6469757 29.8593769,47.8381457 C30.2072273,48.4344606 30.9726244,48.6358809 31.5689393,48.2880306 L42.8381457,41.7143268 C43.0244003,41.6056784 43.1793821,41.4506965 43.2880306,41.264442 C43.6358809,40.6681271 43.4344606,39.9027299 42.8381457,39.5548796 L42.8381457,39.5548796 L31.5689393,32.9811758 L31.5689393,32.9811758 C31.3777692,32.86966 31.1604188,32.8108995 30.9391005,32.8108995 C30.2487446,32.8108995 29.6891005,33.3705435 29.6891005,34.0608995 L29.6891005,34.0608995 L29.6891005,38.1346032 Z" id="Combined-Shape" transform="translate(30.323805, 40.634705) rotate(-90.000000) translate(-30.323805, -40.634705) "></path>
      </g>
    </g>
  </g>
</svg>