<?xml version="1.0" encoding="UTF-8"?>
<svg width="100%" height="100%" viewBox="0 0 32 32" version="1.1" xmlns="http://www.w3.org/2000/svg" xmlns:xlink="http://www.w3.org/1999/xlink">
    <!-- Generator: Sketch 49 (51002) - http://www.bohemiancoding.com/sketch -->
    <title>badges/copper_s</title>
    <desc>Created with Sketch.</desc>
    <defs>
        <linearGradient x1="3.28842474%" y1="3.28842474%" x2="100%" y2="100%" id="linearGradient-1">
            <stop stop-color="#F9BA90" offset="0%"></stop>
            <stop stop-color="#AF5A23" offset="100%"></stop>
        </linearGradient>
        <linearGradient x1="3.79670861%" y1="3.79670861%" x2="96.1626324%" y2="96.1626324%" id="linearGradient-2">
            <stop stop-color="#FFD3B6" offset="0%"></stop>
            <stop stop-color="#D0804A" offset="100%"></stop>
        </linearGradient>
        <path d="M11.3218233,4.70588235 L15.0017316,1.02597405 C15.55306,0.474645634 16.44694,0.474645634 16.9982684,1.02597405 L20.6781767,4.70588235 L25.8823529,4.70588235 C26.6620491,4.70588235 27.2941176,5.33795094 27.2941176,6.11764706 L27.2941176,11.3218233 L30.974026,15.0017316 C31.5253544,15.55306 31.5253544,16.44694 30.974026,16.9982684 L27.2941176,20.6781767 L27.2941176,25.8823529 C27.2941176,26.6620491 26.6620491,27.2941176 25.8823529,27.2941176 L20.6781767,27.2941176 L16.9982684,30.974026 C16.44694,31.5253544 15.55306,31.5253544 15.0017316,30.974026 L11.3218233,27.2941176 L6.11764706,27.2941176 C5.33795094,27.2941176 4.70588235,26.6620491 4.70588235,25.8823529 L4.70588235,20.6781767 L1.02597405,16.9982684 C0.474645634,16.44694 0.474645634,15.55306 1.02597405,15.0017316 L4.70588235,11.3218233 L4.70588235,6.11764706 C4.70588235,5.33795094 5.33795094,4.70588235 6.11764706,4.70588235 L11.3218233,4.70588235 Z" id="path-3"></path>
        <linearGradient x1="2.45137117%" y1="2.45137117%" x2="100%" y2="100%" id="linearGradient-4">
            <stop stop-color="#FBD2B8" offset="0%"></stop>
            <stop stop-color="#F3A672" offset="100%"></stop>
        </linearGradient>
        <path d="M18.1933189,19.221951 C18.5937302,19.221951 18.9679741,18.8912674 19.000886,18.4089882 C19.0337979,17.9267091 18.6211735,17.5336935 18.1933189,17.5336935 L12.0343732,17.5336935 C10.3507335,17.5336935 9.44216997,16.0961797 9.50936007,13.7522999 C9.57655017,11.4084201 10.7965515,10.0705885 12.4801912,10.0705885 L19.726515,10.0705885 C20.6417792,10.0705885 22.1194791,11.1952034 22.2684065,13.1804354 L13.9526234,13.1804354 C13.5192231,13.1804354 13.1947692,13.4603279 13.1716224,13.9252405 C13.1484756,14.3901532 13.4633287,14.7267746 13.9294399,14.7267746 L20.0641427,14.7267746 C21.8062701,14.7267746 22.7605177,15.9310192 22.6773338,18.4089882 C22.5899824,21.0111024 21.4686423,22.3058826 19.726515,22.3058826 L13.0973466,22.3058826 C11.7074844,22.2945836 10.1002472,21.6712381 9.8530697,19.221951 L18.1933189,19.221951 Z" id="path-5"></path>
    </defs>
    <g id="badges/copper_s" stroke="none" stroke-width="1" fill="none" fill-rule="evenodd">
        <g id="badges/gold_s">
            <g id="Group-9">
                <g id="Combined-Shape">
                    <use fill="url(#linearGradient-1)" fill-rule="evenodd" xlink:href="#path-3"></use>
                    <path stroke="url(#linearGradient-2)" stroke-width="2.82352941" d="M16,2.02424244 L11.9065954,6.11764706 L6.11764706,6.11764706 L6.11764706,11.9065954 L2.02424244,16 L6.11764706,20.0934046 L6.11764706,25.8823529 L11.9065954,25.8823529 L16,29.9757576 L20.0934046,25.8823529 L25.8823529,25.8823529 L25.8823529,20.0934046 L29.9757576,16 L25.8823529,11.9065954 L25.8823529,6.11764706 L20.0934046,6.11764706 L16,2.02424244 Z"></path>
                </g>
                <mask id="mask-6" fill="white">
                    <use xlink:href="#path-5"></use>
                </mask>
                <use id="ic/Skypixel" fill="url(#linearGradient-4)" xlink:href="#path-5"></use>
            </g>
        </g>
    </g>
</svg>
